<svg id="Livello_1" data-name="Livello 1" xmlns="http://www.w3.org/2000/svg" viewBox="0 0 100 100"><defs><style>.cls-1{fill:#fff;}</style></defs><circle class="cls-1" cx="50" cy="50" r="50"/><path d="M74.3,50v7.89L56,40.2a15.23,15.23,0,0,0-7.69-28.39,15.29,15.29,0,0,0-13.4,8l0,0-.41.88h0l-.21.44,0,0a15,15,0,0,0,2,15.26h0A27.56,27.56,0,0,0,23.93,48.76l0,0-.41.92c-.11.23-.18.46-.27.69-.18.41-.33.82-.48,1.23s-.28.73-.4,1.09c-.22.72-.42,1.45-.59,2.19-.07.31-.13.63-.19.95-.1.55-.19,1.11-.26,1.67,0,.29-.08.58-.11.87-.08.84-.13,1.68-.13,2.54A27.34,27.34,0,0,0,48.38,88.19c1,0,1.9,0,2.84-.14.34,0,.67-.11,1-.16.59-.08,1.18-.16,1.76-.28.36-.08.71-.19,1.07-.28.55-.14,1.11-.27,1.65-.45.34-.11.68-.24,1-.37.54-.2,1.07-.39,1.59-.62l.3-.12.91-.41,0,0a27.3,27.3,0,0,0,15.2-24.44V50ZM36,20.8A13.87,13.87,0,1,1,55,39.22ZM59.46,84.28,25,49.8A26.11,26.11,0,0,1,37.33,37.44L71.85,71.85A26.1,26.1,0,0,1,59.46,84.28Z"/></svg>